# xmcd
#
# Track frame offsets: 
#        150
#        24206
#        45991
#        63196
#        86243
#        105333
#        127137
#        151878
#        172143
#        198931
#        215730
#        244850
#
# Disc length: 3645 seconds
#
# Revision: 0
# Processed by: cddbd v1.5.1PL0 Copyright (c) Steve Scherf et al.
# Submitted via: ExactAudioCopy v0.90b4
#
DISCID=9e0e3b0c
DTITLE=Forty Thieves - I Don't Owe You A Thing
DYEAR=2004
DGENRE=Blues
TTITLE0=Routine Attention
TTITLE1=Don't Follow Me
TTITLE2=Soul Sellin' Blues
TTITLE3=Send A Message
TTITLE4=Take It Slow
TTITLE5=So Long
TTITLE6=Don't Miss the Stops
TTITLE7=You Weren't Worth My Time
TTITLE8=Girl in the Cotton Throw
TTITLE9=Rolling Over
TTITLE10=I Don't Owe You A Thing
TTITLE11=All Night
EXTD=
EXTT0=
EXTT1=
EXTT2=
EXTT3=
EXTT4=
EXTT5=
EXTT6=
EXTT7=
EXTT8=
EXTT9=
EXTT10=
EXTT11=
PLAYORDER=
